<svg width="203" height="116" viewBox="0 0 203 116" fill="none" xmlns="http://www.w3.org/2000/svg">
<path d="M153.091 94.0909L118.045 59.0455C115.25 56.25 113.386 53 112.455 49.2955C111.545 45.5909 111.557 41.9091 112.489 38.25C113.42 34.5682 115.273 31.3636 118.045 28.6364C120.886 25.8409 124.125 23.9886 127.761 23.0795C131.42 22.1477 135.068 22.1477 138.705 23.0795C142.364 24.0114 145.614 25.8636 148.455 28.6364L153.091 33.1364L157.727 28.6364C160.591 25.8636 163.841 24.0114 167.477 23.0795C171.114 22.1477 174.75 22.1477 178.386 23.0795C182.045 23.9886 185.295 25.8409 188.136 28.6364C190.909 31.3636 192.761 34.5682 193.693 38.25C194.625 41.9091 194.625 45.5909 193.693 49.2955C192.784 53 190.932 56.25 188.136 59.0455L153.091 94.0909Z" fill="#FF006E"/>
<path d="M32.8636 40.6364V50.1818H1.90909V40.6364H32.8636ZM9.64773 93V35.6932C9.64773 32.1705 10.375 29.2386 11.8295 26.8977C13.3068 24.5568 15.2841 22.8068 17.7614 21.6477C20.2386 20.4886 22.9886 19.9091 26.0114 19.9091C28.1477 19.9091 30.0455 20.0795 31.7045 20.4205C33.3636 20.7614 34.5909 21.0682 35.3864 21.3409L32.9318 30.8864C32.4091 30.7273 31.75 30.5682 30.9545 30.4091C30.1591 30.2273 29.2727 30.1364 28.2955 30.1364C26 30.1364 24.375 30.6932 23.4205 31.8068C22.4886 32.8977 22.0227 34.4659 22.0227 36.5114V93H9.64773ZM42.5284 93V40.6364H54.8693V93H42.5284ZM48.733 33.2045C46.7784 33.2045 45.0966 32.5568 43.6875 31.2614C42.2784 29.9432 41.5739 28.3636 41.5739 26.5227C41.5739 24.6591 42.2784 23.0795 43.6875 21.7841C45.0966 20.4659 46.7784 19.8068 48.733 19.8068C50.7102 19.8068 52.392 20.4659 53.7784 21.7841C55.1875 23.0795 55.892 24.6591 55.892 26.5227C55.892 28.3636 55.1875 29.9432 53.7784 31.2614C52.392 32.5568 50.7102 33.2045 48.733 33.2045ZM93.7074 40.6364V50.1818H63.6051V40.6364H93.7074ZM71.0369 28.0909H83.3778V77.25C83.3778 78.9091 83.6278 80.1818 84.1278 81.0682C84.6506 81.9318 85.3324 82.5227 86.1733 82.8409C87.0142 83.1591 87.946 83.3182 88.9688 83.3182C89.7415 83.3182 90.446 83.2614 91.0824 83.1477C91.7415 83.0341 92.2415 82.9318 92.5824 82.8409L94.6619 92.4886C94.0028 92.7159 93.0597 92.9659 91.8324 93.2386C90.6278 93.5114 89.1506 93.6705 87.4006 93.7159C84.3097 93.8068 81.5256 93.3409 79.0483 92.3182C76.571 91.2727 74.6051 89.6591 73.1506 87.4773C71.7188 85.2955 71.0142 82.5682 71.0369 79.2955V28.0909Z" fill="#000814"/>
</svg>
