<svg width="309" height="170" viewBox="0 0 309 170" fill="none" xmlns="http://www.w3.org/2000/svg">
<path d="M32.8636 40.6364V50.1818H1.90909V40.6364H32.8636ZM9.64773 93V35.6932C9.64773 32.1705 10.375 29.2386 11.8295 26.8977C13.3068 24.5568 15.2841 22.8068 17.7614 21.6477C20.2386 20.4886 22.9886 19.9091 26.0114 19.9091C28.1477 19.9091 30.0455 20.0795 31.7045 20.4205C33.3636 20.7614 34.5909 21.0682 35.3864 21.3409L32.9318 30.8864C32.4091 30.7273 31.75 30.5682 30.9545 30.4091C30.1591 30.2273 29.2727 30.1364 28.2955 30.1364C26 30.1364 24.375 30.6932 23.4205 31.8068C22.4886 32.8977 22.0227 34.4659 22.0227 36.5114V93H9.64773ZM42.5284 93V40.6364H54.8693V93H42.5284ZM48.733 33.2045C46.7784 33.2045 45.0966 32.5568 43.6875 31.2614C42.2784 29.9432 41.5739 28.3636 41.5739 26.5227C41.5739 24.6591 42.2784 23.0795 43.6875 21.7841C45.0966 20.4659 46.7784 19.8068 48.733 19.8068C50.7102 19.8068 52.392 20.4659 53.7784 21.7841C55.1875 23.0795 55.892 24.6591 55.892 26.5227C55.892 28.3636 55.1875 29.9432 53.7784 31.2614C52.392 32.5568 50.7102 33.2045 48.733 33.2045ZM93.7074 40.6364V50.1818H63.6051V40.6364H93.7074ZM71.0369 28.0909H83.3778V77.25C83.3778 78.9091 83.6278 80.1818 84.1278 81.0682C84.6506 81.9318 85.3324 82.5227 86.1733 82.8409C87.0142 83.1591 87.946 83.3182 88.9688 83.3182C89.7415 83.3182 90.446 83.2614 91.0824 83.1477C91.7415 83.0341 92.2415 82.9318 92.5824 82.8409L94.6619 92.4886C94.0028 92.7159 93.0597 92.9659 91.8324 93.2386C90.6278 93.5114 89.1506 93.6705 87.4006 93.7159C84.3097 93.8068 81.5256 93.3409 79.0483 92.3182C76.571 91.2727 74.6051 89.6591 73.1506 87.4773C71.7188 85.2955 71.0142 82.5682 71.0369 79.2955V28.0909Z" fill="#FF006E"/>
<path d="M111.767 60.2727V93H105.699V40.6364H111.597V48.8523H112.142C113.369 46.1705 115.278 44.0227 117.869 42.4091C120.483 40.7727 123.71 39.9545 127.551 39.9545C131.074 39.9545 134.165 40.6932 136.824 42.1705C139.506 43.625 141.585 45.7727 143.062 48.6136C144.562 51.4545 145.312 54.9432 145.312 59.0795V93H139.244V59.4545C139.244 55.1591 138.04 51.7614 135.631 49.2614C133.244 46.7614 130.04 45.5114 126.017 45.5114C123.267 45.5114 120.824 46.1023 118.688 47.2841C116.551 48.4659 114.858 50.1705 113.608 52.3977C112.381 54.6023 111.767 57.2273 111.767 60.2727ZM182.463 94.0909C177.577 94.0909 173.349 92.9545 169.781 90.6818C166.213 88.3864 163.452 85.2159 161.497 81.1705C159.565 77.1023 158.599 72.4205 158.599 67.125C158.599 61.8523 159.565 57.1705 161.497 53.0795C163.452 48.9659 166.145 45.75 169.577 43.4318C173.031 41.0909 177.02 39.9205 181.543 39.9205C184.384 39.9205 187.122 40.4432 189.759 41.4886C192.395 42.5114 194.759 44.0909 196.849 46.2273C198.963 48.3409 200.634 51.0114 201.861 54.2386C203.088 57.4432 203.702 61.2386 203.702 65.625V68.625H162.793V63.2727H197.497C197.497 59.9091 196.815 56.8864 195.452 54.2045C194.111 51.5 192.236 49.3636 189.827 47.7955C187.44 46.2273 184.679 45.4432 181.543 45.4432C178.224 45.4432 175.304 46.3295 172.781 48.1023C170.259 49.875 168.281 52.2159 166.849 55.125C165.44 58.0341 164.724 61.2159 164.702 64.6705V67.875C164.702 72.0341 165.418 75.6705 166.849 78.7841C168.304 81.875 170.361 84.2727 173.02 85.9773C175.679 87.6818 178.827 88.5341 182.463 88.5341C184.94 88.5341 187.111 88.1477 188.974 87.375C190.861 86.6023 192.44 85.5682 193.713 84.2727C195.009 82.9545 195.986 81.5114 196.645 79.9432L202.406 81.8182C201.611 84.0227 200.304 86.0568 198.486 87.9205C196.69 89.7841 194.44 91.2841 191.736 92.4205C189.054 93.5341 185.963 94.0909 182.463 94.0909ZM252.256 52.125L246.699 53.6932C246.153 52.125 245.381 50.7045 244.381 49.4318C243.381 48.1591 242.074 47.1477 240.46 46.3977C238.869 45.6477 236.892 45.2727 234.528 45.2727C230.983 45.2727 228.074 46.1136 225.801 47.7955C223.528 49.4773 222.392 51.6477 222.392 54.3068C222.392 56.5568 223.165 58.3864 224.71 59.7955C226.278 61.1818 228.688 62.2841 231.938 63.1023L239.847 65.0455C244.233 66.1136 247.517 67.8068 249.699 70.125C251.903 72.4432 253.006 75.3523 253.006 78.8523C253.006 81.8068 252.188 84.4318 250.551 86.7273C248.915 89.0227 246.631 90.8295 243.699 92.1477C240.79 93.4432 237.415 94.0909 233.574 94.0909C228.46 94.0909 224.244 92.9432 220.926 90.6477C217.608 88.3295 215.483 84.9886 214.551 80.625L220.381 79.1932C221.131 82.3068 222.597 84.6591 224.778 86.25C226.983 87.8409 229.881 88.6364 233.472 88.6364C237.494 88.6364 240.71 87.7386 243.119 85.9432C245.528 84.125 246.733 81.8523 246.733 79.125C246.733 77.0114 246.028 75.2386 244.619 73.8068C243.21 72.3523 241.074 71.2841 238.21 70.6023L229.653 68.5568C225.108 67.4659 221.744 65.7386 219.562 63.375C217.381 61.0114 216.29 58.0795 216.29 54.5795C216.29 51.6932 217.074 49.1591 218.642 46.9773C220.21 44.7727 222.369 43.0455 225.119 41.7955C227.869 40.5455 231.006 39.9205 234.528 39.9205C239.324 39.9205 243.153 41.0114 246.017 43.1932C248.903 45.3523 250.983 48.3295 252.256 52.125ZM301.474 52.125L295.918 53.6932C295.372 52.125 294.599 50.7045 293.599 49.4318C292.599 48.1591 291.293 47.1477 289.679 46.3977C288.088 45.6477 286.111 45.2727 283.747 45.2727C280.202 45.2727 277.293 46.1136 275.02 47.7955C272.747 49.4773 271.611 51.6477 271.611 54.3068C271.611 56.5568 272.384 58.3864 273.929 59.7955C275.497 61.1818 277.906 62.2841 281.156 63.1023L289.065 65.0455C293.452 66.1136 296.736 67.8068 298.918 70.125C301.122 72.4432 302.224 75.3523 302.224 78.8523C302.224 81.8068 301.406 84.4318 299.77 86.7273C298.134 89.0227 295.849 90.8295 292.918 92.1477C290.009 93.4432 286.634 94.0909 282.793 94.0909C277.679 94.0909 273.463 92.9432 270.145 90.6477C266.827 88.3295 264.702 84.9886 263.77 80.625L269.599 79.1932C270.349 82.3068 271.815 84.6591 273.997 86.25C276.202 87.8409 279.099 88.6364 282.69 88.6364C286.713 88.6364 289.929 87.7386 292.338 85.9432C294.747 84.125 295.952 81.8523 295.952 79.125C295.952 77.0114 295.247 75.2386 293.838 73.8068C292.429 72.3523 290.293 71.2841 287.429 70.6023L278.872 68.5568C274.327 67.4659 270.963 65.7386 268.781 63.375C266.599 61.0114 265.509 58.0795 265.509 54.5795C265.509 51.6932 266.293 49.1591 267.861 46.9773C269.429 44.7727 271.588 43.0455 274.338 41.7955C277.088 40.5455 280.224 39.9205 283.747 39.9205C288.543 39.9205 292.372 41.0114 295.236 43.1932C298.122 45.3523 300.202 48.3295 301.474 52.125Z" fill="white"/>
<path d="M5.34091 155V120.091H9.27273V125.455H9.63636C10.3333 123.652 11.4924 122.235 13.1136 121.205C14.75 120.159 16.7121 119.636 19 119.636C21.4091 119.636 23.3864 120.205 24.9318 121.341C26.4924 122.462 27.6591 124.008 28.4318 125.977H28.7273C29.5152 124.038 30.7955 122.5 32.5682 121.364C34.3561 120.212 36.5227 119.636 39.0682 119.636C42.3106 119.636 44.8712 120.659 46.75 122.705C48.6288 124.735 49.5682 127.705 49.5682 131.614V155H45.5227V131.614C45.5227 128.856 44.8182 126.788 43.4091 125.409C42 124.03 40.1439 123.341 37.8409 123.341C35.1742 123.341 33.1212 124.159 31.6818 125.795C30.2424 127.432 29.5227 129.508 29.5227 132.023V155H25.3864V131.25C25.3864 128.886 24.7273 126.977 23.4091 125.523C22.0909 124.068 20.2348 123.341 17.8409 123.341C16.2348 123.341 14.7879 123.735 13.5 124.523C12.2273 125.311 11.2197 126.409 10.4773 127.818C9.75 129.212 9.38636 130.818 9.38636 132.636V155H5.34091ZM70.0284 155.795C67.9223 155.795 65.9981 155.386 64.2557 154.568C62.5133 153.735 61.1269 152.538 60.0966 150.977C59.0663 149.402 58.5511 147.492 58.5511 145.25C58.5511 143.523 58.8769 142.068 59.5284 140.886C60.1799 139.705 61.1042 138.735 62.3011 137.977C63.4981 137.22 64.9148 136.621 66.5511 136.182C68.1875 135.742 69.9905 135.402 71.9602 135.159C73.9148 134.917 75.5663 134.705 76.9148 134.523C78.2784 134.341 79.3163 134.053 80.0284 133.659C80.7405 133.265 81.0966 132.629 81.0966 131.75V130.932C81.0966 128.553 80.3845 126.682 78.9602 125.318C77.5511 123.939 75.5208 123.25 72.8693 123.25C70.3542 123.25 68.3011 123.803 66.7102 124.909C65.1345 126.015 64.0284 127.318 63.392 128.818L59.5511 127.432C60.339 125.523 61.4299 124 62.8239 122.864C64.2178 121.712 65.7784 120.886 67.5057 120.386C69.233 119.871 70.983 119.614 72.7557 119.614C74.089 119.614 75.4754 119.788 76.9148 120.136C78.3693 120.485 79.7178 121.091 80.9602 121.955C82.2027 122.803 83.2102 123.992 83.983 125.523C84.7557 127.038 85.142 128.962 85.142 131.295V155H81.0966V149.477H80.8466C80.3617 150.508 79.642 151.508 78.6875 152.477C77.733 153.447 76.536 154.242 75.0966 154.864C73.6572 155.485 71.9678 155.795 70.0284 155.795ZM70.5739 152.091C72.7254 152.091 74.589 151.614 76.1648 150.659C77.7405 149.705 78.9527 148.439 79.8011 146.864C80.6648 145.273 81.0966 143.523 81.0966 141.614V136.568C80.7936 136.856 80.286 137.114 79.5739 137.341C78.8769 137.568 78.0663 137.773 77.142 137.955C76.233 138.121 75.3239 138.265 74.4148 138.386C73.5057 138.508 72.6875 138.614 71.9602 138.705C69.9905 138.947 68.3087 139.326 66.9148 139.841C65.5208 140.356 64.4527 141.068 63.7102 141.977C62.9678 142.871 62.5966 144.023 62.5966 145.432C62.5966 147.553 63.3542 149.197 64.8693 150.364C66.3845 151.515 68.286 152.091 70.5739 152.091ZM109.653 120.091V123.614H92.9943V120.091H109.653ZM98.1989 111.727H102.267V145.886C102.267 147.341 102.517 148.485 103.017 149.318C103.517 150.136 104.169 150.72 104.972 151.068C105.775 151.402 106.631 151.568 107.54 151.568C108.07 151.568 108.525 151.538 108.903 151.477C109.282 151.402 109.616 151.326 109.903 151.25L110.767 154.909C110.373 155.061 109.888 155.197 109.312 155.318C108.737 155.455 108.025 155.523 107.176 155.523C105.691 155.523 104.259 155.197 102.881 154.545C101.517 153.894 100.396 152.924 99.517 151.636C98.6383 150.348 98.1989 148.75 98.1989 146.841V111.727ZM132.591 120.091V123.614H115.932V120.091H132.591ZM121.136 111.727H125.205V145.886C125.205 147.341 125.455 148.485 125.955 149.318C126.455 150.136 127.106 150.72 127.909 151.068C128.712 151.402 129.568 151.568 130.477 151.568C131.008 151.568 131.462 151.538 131.841 151.477C132.22 151.402 132.553 151.326 132.841 151.25L133.705 154.909C133.311 155.061 132.826 155.197 132.25 155.318C131.674 155.455 130.962 155.523 130.114 155.523C128.629 155.523 127.197 155.197 125.818 154.545C124.455 153.894 123.333 152.924 122.455 151.636C121.576 150.348 121.136 148.75 121.136 146.841V111.727ZM155.517 155.727C152.259 155.727 149.441 154.97 147.062 153.455C144.684 151.924 142.843 149.811 141.54 147.114C140.252 144.402 139.608 141.28 139.608 137.75C139.608 134.235 140.252 131.114 141.54 128.386C142.843 125.644 144.638 123.5 146.926 121.955C149.229 120.394 151.888 119.614 154.903 119.614C156.797 119.614 158.623 119.962 160.381 120.659C162.138 121.341 163.714 122.394 165.108 123.818C166.517 125.227 167.631 127.008 168.449 129.159C169.267 131.295 169.676 133.826 169.676 136.75V138.75H142.403V135.182H165.54C165.54 132.939 165.085 130.924 164.176 129.136C163.282 127.333 162.032 125.909 160.426 124.864C158.835 123.818 156.994 123.295 154.903 123.295C152.691 123.295 150.744 123.886 149.062 125.068C147.381 126.25 146.063 127.811 145.108 129.75C144.169 131.689 143.691 133.811 143.676 136.114V138.25C143.676 141.023 144.153 143.447 145.108 145.523C146.078 147.583 147.449 149.182 149.222 150.318C150.994 151.455 153.093 152.023 155.517 152.023C157.169 152.023 158.616 151.765 159.858 151.25C161.116 150.735 162.169 150.045 163.017 149.182C163.881 148.303 164.532 147.341 164.972 146.295L168.812 147.545C168.282 149.015 167.411 150.371 166.199 151.614C165.002 152.856 163.502 153.856 161.699 154.614C159.911 155.356 157.85 155.727 155.517 155.727ZM178.591 155V120.091H182.523V125.455H182.818C183.515 123.697 184.727 122.28 186.455 121.205C188.197 120.114 190.167 119.568 192.364 119.568C192.697 119.568 193.068 119.576 193.477 119.591C193.886 119.606 194.227 119.621 194.5 119.636V123.75C194.318 123.72 194 123.674 193.545 123.614C193.091 123.553 192.598 123.523 192.068 123.523C190.25 123.523 188.629 123.909 187.205 124.682C185.795 125.439 184.682 126.492 183.864 127.841C183.045 129.189 182.636 130.727 182.636 132.455V155H178.591ZM224.858 127.75L221.153 128.795C220.79 127.75 220.275 126.803 219.608 125.955C218.941 125.106 218.07 124.432 216.994 123.932C215.934 123.432 214.616 123.182 213.04 123.182C210.676 123.182 208.737 123.742 207.222 124.864C205.706 125.985 204.949 127.432 204.949 129.205C204.949 130.705 205.464 131.924 206.494 132.864C207.54 133.788 209.146 134.523 211.312 135.068L216.585 136.364C219.509 137.076 221.699 138.205 223.153 139.75C224.623 141.295 225.358 143.235 225.358 145.568C225.358 147.538 224.813 149.288 223.722 150.818C222.631 152.348 221.108 153.553 219.153 154.432C217.214 155.295 214.964 155.727 212.403 155.727C208.994 155.727 206.184 154.962 203.972 153.432C201.759 151.886 200.343 149.659 199.722 146.75L203.608 145.795C204.108 147.871 205.085 149.439 206.54 150.5C208.009 151.561 209.941 152.091 212.335 152.091C215.017 152.091 217.161 151.492 218.767 150.295C220.373 149.083 221.176 147.568 221.176 145.75C221.176 144.341 220.706 143.159 219.767 142.205C218.828 141.235 217.403 140.523 215.494 140.068L209.79 138.705C206.759 137.977 204.517 136.826 203.062 135.25C201.608 133.674 200.881 131.72 200.881 129.386C200.881 127.462 201.403 125.773 202.449 124.318C203.494 122.848 204.934 121.697 206.767 120.864C208.6 120.03 210.691 119.614 213.04 119.614C216.237 119.614 218.79 120.341 220.699 121.795C222.623 123.235 224.009 125.22 224.858 127.75Z" fill="white"/>
<path d="M274.727 155.727L251.364 132.364C249.5 130.5 248.258 128.333 247.636 125.864C247.03 123.394 247.038 120.939 247.659 118.5C248.28 116.045 249.515 113.909 251.364 112.091C253.258 110.227 255.417 108.992 257.841 108.386C260.28 107.765 262.712 107.765 265.136 108.386C267.576 109.008 269.742 110.242 271.636 112.091L274.727 115.091L277.818 112.091C279.727 110.242 281.894 109.008 284.318 108.386C286.742 107.765 289.167 107.765 291.591 108.386C294.03 108.992 296.197 110.227 298.091 112.091C299.939 113.909 301.174 116.045 301.795 118.5C302.417 120.939 302.417 123.394 301.795 125.864C301.189 128.333 299.955 130.5 298.091 132.364L274.727 155.727Z" fill="#FF006E"/>
</svg>
